<svg width="28" height="20" viewBox="0 0 28 20" fill="none" xmlns="http://www.w3.org/2000/svg">
<path fill-rule="evenodd" clip-rule="evenodd" d="M13.097 4.35111V17.3417C13.097 17.8576 12.2891 18.1097 11.9111 17.7586C9.79452 15.7924 6.55925 15.5059 4.60689 15.6765C4.30162 15.7032 4.02979 15.4688 4.02979 15.1623V0.530452C4.02979 0.296103 4.19248 0.0906978 4.42442 0.0572022C7.83822 -0.435795 11.4308 2.37419 12.9678 4.01849C13.0522 4.10872 13.097 4.22758 13.097 4.35111ZM13.6007 4.35111V17.3417C13.6007 17.8576 14.4086 18.1097 14.7866 17.7586C16.9032 15.7924 20.1384 15.5059 22.0908 15.6765C22.3961 15.7032 22.6679 15.4688 22.6679 15.1623V0.530452C22.6679 0.296103 22.5052 0.0906978 22.2733 0.0572022C18.8595 -0.435795 15.2669 2.37419 13.7299 4.01849C13.6455 4.10872 13.6007 4.22758 13.6007 4.35111ZM1.5 4.02979H2.71224V16.4632C2.71224 16.7707 2.98605 17.0054 3.2921 16.9751C5.42436 16.7641 8.95297 17.0371 11.448 19.0758C7.92087 19.0391 4.55484 19.186 2.01603 19.6507C1.00884 19.8351 0 19.0917 0 18.0678V5.52979C0 4.70136 0.671573 4.02979 1.5 4.02979ZM23.6024 17.1339C21.3407 16.895 17.549 17.0658 14.918 19.1652C18.8086 19.3202 22.6328 19.6421 25.5221 19.9556C26.4178 20.0528 27.2016 19.3547 27.2016 18.4537V5.52979C27.2016 4.70136 26.5301 4.02979 25.7016 4.02979H24.1792V16.6255C24.1792 16.9318 23.907 17.166 23.6024 17.1339Z" fill="#FFFEFE"/>
</svg>
