<svg width="26" height="23" viewBox="0 0 26 23" fill="none" xmlns="http://www.w3.org/2000/svg">
<path fill-rule="evenodd" clip-rule="evenodd" d="M14.2539 0.966036C13.6765 0.423105 12.7763 0.423105 12.1989 0.966036L1.10197 11.3999C0.112086 12.3307 0.770746 13.9928 2.12948 13.9928H4V21.2474C4 22.0758 4.67157 22.7474 5.5 22.7474H9.89188L9.89193 22.7474H16.7655L16.7656 22.7474H21.1571C21.9855 22.7474 22.6571 22.0758 22.6571 21.2474V13.9928H24.3232C25.682 13.9928 26.3406 12.3307 25.3508 11.4L14.2539 0.966036ZM16.7656 22.7474H9.89188V17.3737C9.89188 16.5453 10.5634 15.8737 11.3919 15.8737H15.2656C16.094 15.8737 16.7656 16.5453 16.7656 17.3737V22.7474Z" fill="white"/>
</svg>
