<svg width="24" height="20" viewBox="0 0 24 20" fill="none" xmlns="http://www.w3.org/2000/svg">
<path fill-rule="evenodd" clip-rule="evenodd" d="M20.0774 0.738864C19.6071 0.449368 18.9911 0.595964 18.7016 1.06629L12.5659 11.0347C12.4212 11.2698 12.4945 11.5778 12.7297 11.7226L16.6534 14.1377C16.8885 14.2824 17.1965 14.2091 17.3413 13.974L23.477 4.00558C23.7665 3.53525 23.6199 2.91929 23.1495 2.6298L20.0774 0.738864ZM11.3379 17.5516C11.3258 17.9378 11.7375 18.1912 12.0768 18.0064L16.0667 15.8338C16.4041 15.65 16.4169 15.1702 16.0897 14.9688L12.2421 12.6006C11.915 12.3992 11.4923 12.6267 11.4803 13.0107L11.3379 17.5516ZM0 4.08467C0 3.53238 0.447715 3.08467 1 3.08467H13.8454C14.3977 3.08467 14.8454 3.53238 14.8454 4.08467C14.8454 4.63695 14.3977 5.08467 13.8454 5.08467H1C0.447715 5.08467 0 4.63695 0 4.08467ZM1 8.00004C0.447715 8.00004 0 8.44776 0 9.00004C0 9.55233 0.447715 10 1 10H8.81893C9.37122 10 9.81893 9.55233 9.81893 9.00004C9.81893 8.44776 9.37122 8.00004 8.81893 8.00004H1ZM0 13.9999C0 13.4476 0.447715 12.9999 1 12.9999H6.58495C7.13724 12.9999 7.58495 13.4476 7.58495 13.9999C7.58495 14.5522 7.13724 14.9999 6.58495 14.9999H1C0.447715 14.9999 0 14.5522 0 13.9999ZM1 18C0.447715 18 0 18.4477 0 19C0 19.5523 0.447715 20 1 20H10C10.5523 20 11 19.5523 11 19C11 18.4477 10.5523 18 10 18H1Z" fill="white"/>
</svg>
