<svg width="87" height="73" viewBox="0 0 87 73" fill="none" xmlns="http://www.w3.org/2000/svg">
<path fill-rule="evenodd" clip-rule="evenodd" d="M16.3538 22.7076C19.8629 22.7076 22.7076 19.8629 22.7076 16.3538C22.7076 12.8447 19.8629 10 16.3538 10C12.8447 10 10 12.8447 10 16.3538C10 19.8629 12.8447 22.7076 16.3538 22.7076ZM32.2171 20.345C30.4357 27.4478 24.009 32.7076 16.3538 32.7076C7.32184 32.7076 0 25.3858 0 16.3538C0 7.32184 7.32184 0 16.3538 0C23.5107 0 29.5939 4.59736 31.8111 11H54.6304C56.8476 4.59736 62.9308 0 70.0877 0C79.1197 0 86.4415 7.32184 86.4415 16.3538C86.4415 25.3858 79.1197 32.7076 70.0877 32.7076C62.4325 32.7076 56.0058 27.4478 54.2244 20.345H32.2171ZM70.0877 22.7076C73.5968 22.7076 76.4415 19.8629 76.4415 16.3538C76.4415 12.8447 73.5968 10 70.0877 10C66.5786 10 63.7339 12.8447 63.7339 16.3538C63.7339 19.8629 66.5786 22.7076 70.0877 22.7076Z" fill="#0B60B0"/>
<path fill-rule="evenodd" clip-rule="evenodd" d="M49.4004 33.3988C47.8422 31.7994 45.7517 30.9827 43.6509 30.9883C41.5501 30.9827 39.4596 31.7993 37.9013 33.3987L37.4473 33.7877L37.4463 33.7886L12.6123 55.0625L12.6096 55.0648L11.5915 55.9369C8.2361 58.8113 7.84263 63.8646 10.717 67.22L11.0957 67.6621L12.2749 69.0386L12.4946 69.2951C14.9383 72.1477 19.0445 72.9253 22.3367 71.1171C22.6074 70.9685 22.8747 70.8212 23.1389 70.6752L23.1423 70.6734C23.8063 70.3065 24.4501 69.9479 25.075 69.5963C33.6509 64.7722 38.6775 61.2795 43.6462 56.0504C48.6163 61.2826 53.6436 64.776 62.223 69.6013C63.0977 70.0933 64.0093 70.5991 64.9616 71.122C68.2538 72.9298 72.3597 72.1521 74.8032 69.2997L75.0189 69.0479L75.0246 69.0412L76.2042 67.6642L76.5847 67.22C79.4591 63.8646 79.0656 58.8113 75.7102 55.9369L74.6961 55.0682L74.6895 55.0625L49.8555 33.7886L49.4004 33.3988Z" fill="#0B60B0"/>
</svg>
