<svg width="283" height="18" viewBox="0 0 283 18" fill="none" xmlns="http://www.w3.org/2000/svg">
<ellipse cx="4" cy="15" rx="4" ry="3" fill="#D9D9D9"/>
<ellipse cx="29" cy="15" rx="4" ry="3" fill="#D9D9D9"/>
<ellipse cx="54" cy="15" rx="4" ry="3" fill="#D9D9D9"/>
<ellipse cx="79" cy="15" rx="4" ry="3" fill="#D9D9D9"/>
<ellipse cx="104" cy="15" rx="4" ry="3" fill="#D9D9D9"/>
<ellipse cx="129" cy="15" rx="4" ry="3" fill="#D9D9D9"/>
<ellipse cx="154" cy="15" rx="4" ry="3" fill="#D9D9D9"/>
<ellipse cx="179" cy="15" rx="4" ry="3" fill="#D9D9D9"/>
<ellipse cx="204" cy="15" rx="4" ry="3" fill="#D9D9D9"/>
<ellipse cx="229" cy="15" rx="4" ry="3" fill="#D9D9D9"/>
<ellipse cx="254" cy="15" rx="4" ry="3" fill="#D9D9D9"/>
<ellipse cx="279" cy="15" rx="4" ry="3" fill="#D9D9D9"/>
<path d="M4 2V14" stroke="#0B2447" stroke-width="3.5" stroke-linecap="round"/>
<path d="M29 2V14" stroke="#0B2447" stroke-width="3.5" stroke-linecap="round"/>
<path d="M54 2V14" stroke="#0B2447" stroke-width="3.5" stroke-linecap="round"/>
<path d="M79 2V14" stroke="#0B2447" stroke-width="3.5" stroke-linecap="round"/>
<path d="M104 2V14" stroke="#0B2447" stroke-width="3.5" stroke-linecap="round"/>
<path d="M129 2V14" stroke="#0B2447" stroke-width="3.5" stroke-linecap="round"/>
<path d="M154 2V14" stroke="#0B2447" stroke-width="3.5" stroke-linecap="round"/>
<path d="M179 2V14" stroke="#0B2447" stroke-width="3.5" stroke-linecap="round"/>
<path d="M204 2V14" stroke="#0B2447" stroke-width="3.5" stroke-linecap="round"/>
<path d="M229 2V14" stroke="#0B2447" stroke-width="3.5" stroke-linecap="round"/>
<path d="M254 2V14" stroke="#0B2447" stroke-width="3.5" stroke-linecap="round"/>
<path d="M279 2V14" stroke="#0B2447" stroke-width="3.5" stroke-linecap="round"/>
</svg>
