<svg width="18" height="18" viewBox="0 0 18 18" fill="none" xmlns="http://www.w3.org/2000/svg">
<path fill-rule="evenodd" clip-rule="evenodd" d="M1.19788 14.6807C0.612098 15.2665 0.612098 16.2162 1.19788 16.802C1.78367 17.3878 2.73342 17.3878 3.31921 16.802L9.00001 11.1212L14.6809 16.8021C15.2667 17.3879 16.2165 17.3879 16.8022 16.8021C17.388 16.2163 17.388 15.2666 16.8022 14.6808L11.1213 8.99987L16.8022 3.31896C17.388 2.73317 17.388 1.78343 16.8022 1.19764C16.2165 0.611854 15.2667 0.611854 14.6809 1.19764L9.00001 6.87855L3.31921 1.19775C2.73342 0.611961 1.78367 0.611961 1.19788 1.19775C0.612098 1.78353 0.612098 2.73328 1.19788 3.31907L6.87869 8.99987L1.19788 14.6807Z" fill="#F05454"/>
</svg>
